<mxfile host="Electron" agent="Mozilla/5.0 (Windows NT 10.0; Win64; x64) AppleWebKit/537.36 (KHTML, like Gecko) draw.io/24.7.8 Chrome/128.0.6613.36 Electron/32.0.1 Safari/537.36" version="24.7.8">
  <diagram name="Страница — 1" id="k8S4G0Od5IQTNGtw0Lyn">
    <mxGraphModel dx="1434" dy="836" grid="1" gridSize="10" guides="1" tooltips="1" connect="1" arrows="1" fold="1" page="1" pageScale="1" pageWidth="827" pageHeight="1169" math="0" shadow="0">
      <root>
        <mxCell id="0" />
        <mxCell id="1" parent="0" />
        <mxCell id="mu_eCouTYCX2NFJh38U6-1" value="" style="shape=table;startSize=0;container=1;collapsible=0;childLayout=tableLayout;" parent="1" vertex="1">
          <mxGeometry x="75" width="760" height="960" as="geometry" />
        </mxCell>
        <mxCell id="mu_eCouTYCX2NFJh38U6-2" value="" style="shape=tableRow;horizontal=0;startSize=0;swimlaneHead=0;swimlaneBody=0;strokeColor=inherit;top=0;left=0;bottom=0;right=0;collapsible=0;dropTarget=0;fillColor=none;points=[[0,0.5],[1,0.5]];portConstraint=eastwest;" parent="mu_eCouTYCX2NFJh38U6-1" vertex="1">
          <mxGeometry width="760" height="41" as="geometry" />
        </mxCell>
        <mxCell id="mu_eCouTYCX2NFJh38U6-3" value="Заказчик" style="shape=partialRectangle;html=1;whiteSpace=wrap;connectable=0;strokeColor=inherit;overflow=hidden;fillColor=none;top=0;left=0;bottom=0;right=0;pointerEvents=1;" parent="mu_eCouTYCX2NFJh38U6-2" vertex="1">
          <mxGeometry width="248" height="41" as="geometry">
            <mxRectangle width="248" height="41" as="alternateBounds" />
          </mxGeometry>
        </mxCell>
        <mxCell id="mu_eCouTYCX2NFJh38U6-4" value="Курьер" style="shape=partialRectangle;html=1;whiteSpace=wrap;connectable=0;strokeColor=inherit;overflow=hidden;fillColor=none;top=0;left=0;bottom=0;right=0;pointerEvents=1;" parent="mu_eCouTYCX2NFJh38U6-2" vertex="1">
          <mxGeometry x="248" width="281" height="41" as="geometry">
            <mxRectangle width="281" height="41" as="alternateBounds" />
          </mxGeometry>
        </mxCell>
        <mxCell id="mu_eCouTYCX2NFJh38U6-5" value="Система" style="shape=partialRectangle;html=1;whiteSpace=wrap;connectable=0;strokeColor=inherit;overflow=hidden;fillColor=none;top=0;left=0;bottom=0;right=0;pointerEvents=1;" parent="mu_eCouTYCX2NFJh38U6-2" vertex="1">
          <mxGeometry x="529" width="231" height="41" as="geometry">
            <mxRectangle width="231" height="41" as="alternateBounds" />
          </mxGeometry>
        </mxCell>
        <mxCell id="mu_eCouTYCX2NFJh38U6-6" value="" style="shape=tableRow;horizontal=0;startSize=0;swimlaneHead=0;swimlaneBody=0;strokeColor=inherit;top=0;left=0;bottom=0;right=0;collapsible=0;dropTarget=0;fillColor=none;points=[[0,0.5],[1,0.5]];portConstraint=eastwest;" parent="mu_eCouTYCX2NFJh38U6-1" vertex="1">
          <mxGeometry y="41" width="760" height="919" as="geometry" />
        </mxCell>
        <mxCell id="mu_eCouTYCX2NFJh38U6-7" value="" style="shape=partialRectangle;html=1;whiteSpace=wrap;connectable=0;strokeColor=inherit;overflow=hidden;fillColor=none;top=0;left=0;bottom=0;right=0;pointerEvents=1;" parent="mu_eCouTYCX2NFJh38U6-6" vertex="1">
          <mxGeometry width="248" height="919" as="geometry">
            <mxRectangle width="248" height="919" as="alternateBounds" />
          </mxGeometry>
        </mxCell>
        <mxCell id="mu_eCouTYCX2NFJh38U6-8" value="" style="shape=partialRectangle;html=1;whiteSpace=wrap;connectable=0;strokeColor=inherit;overflow=hidden;fillColor=none;top=0;left=0;bottom=0;right=0;pointerEvents=1;" parent="mu_eCouTYCX2NFJh38U6-6" vertex="1">
          <mxGeometry x="248" width="281" height="919" as="geometry">
            <mxRectangle width="281" height="919" as="alternateBounds" />
          </mxGeometry>
        </mxCell>
        <mxCell id="mu_eCouTYCX2NFJh38U6-9" value="" style="shape=partialRectangle;html=1;whiteSpace=wrap;connectable=0;strokeColor=inherit;overflow=hidden;fillColor=none;top=0;left=0;bottom=0;right=0;pointerEvents=1;" parent="mu_eCouTYCX2NFJh38U6-6" vertex="1">
          <mxGeometry x="529" width="231" height="919" as="geometry">
            <mxRectangle width="231" height="919" as="alternateBounds" />
          </mxGeometry>
        </mxCell>
        <mxCell id="mu_eCouTYCX2NFJh38U6-14" value="Выбор продуктов" style="rounded=1;whiteSpace=wrap;html=1;" parent="1" vertex="1">
          <mxGeometry x="135" y="270" width="105" height="40" as="geometry" />
        </mxCell>
        <mxCell id="mu_eCouTYCX2NFJh38U6-18" value="" style="endArrow=classic;html=1;rounded=0;entryX=0.5;entryY=0;entryDx=0;entryDy=0;exitX=0.5;exitY=1;exitDx=0;exitDy=0;" parent="1" target="mu_eCouTYCX2NFJh38U6-14" edge="1" source="DZ-y3ShFYis4JmIF9Yui-2">
          <mxGeometry width="50" height="50" relative="1" as="geometry">
            <mxPoint x="187.5" y="220" as="sourcePoint" />
            <mxPoint x="230" y="260" as="targetPoint" />
          </mxGeometry>
        </mxCell>
        <mxCell id="mu_eCouTYCX2NFJh38U6-19" value="Добавление продуктов в корзину" style="rounded=1;whiteSpace=wrap;html=1;" parent="1" vertex="1">
          <mxGeometry x="137.5" y="370" width="102.5" height="40" as="geometry" />
        </mxCell>
        <mxCell id="mu_eCouTYCX2NFJh38U6-20" value="Ввод данных(Куда доставлять, во сколько и т.п)" style="rounded=1;whiteSpace=wrap;html=1;" parent="1" vertex="1">
          <mxGeometry x="137.5" y="480" width="102.5" height="60" as="geometry" />
        </mxCell>
        <mxCell id="mu_eCouTYCX2NFJh38U6-21" value="Подтверждение заказа" style="rounded=1;whiteSpace=wrap;html=1;" parent="1" vertex="1">
          <mxGeometry x="137.5" y="582.5" width="102.5" height="40" as="geometry" />
        </mxCell>
        <mxCell id="mu_eCouTYCX2NFJh38U6-22" value="Оплата" style="rounded=1;whiteSpace=wrap;html=1;" parent="1" vertex="1">
          <mxGeometry x="135" y="700" width="105" height="40" as="geometry" />
        </mxCell>
        <mxCell id="mu_eCouTYCX2NFJh38U6-24" value="" style="endArrow=classic;html=1;rounded=0;entryX=0.5;entryY=0;entryDx=0;entryDy=0;exitX=0.5;exitY=1;exitDx=0;exitDy=0;" parent="1" source="mu_eCouTYCX2NFJh38U6-14" target="mu_eCouTYCX2NFJh38U6-19" edge="1">
          <mxGeometry width="50" height="50" relative="1" as="geometry">
            <mxPoint x="240" y="680" as="sourcePoint" />
            <mxPoint x="290" y="630" as="targetPoint" />
          </mxGeometry>
        </mxCell>
        <mxCell id="mu_eCouTYCX2NFJh38U6-25" value="" style="endArrow=classic;html=1;rounded=0;entryX=0.5;entryY=0;entryDx=0;entryDy=0;exitX=0.5;exitY=1;exitDx=0;exitDy=0;" parent="1" source="mu_eCouTYCX2NFJh38U6-19" target="mu_eCouTYCX2NFJh38U6-20" edge="1">
          <mxGeometry width="50" height="50" relative="1" as="geometry">
            <mxPoint x="230" y="360" as="sourcePoint" />
            <mxPoint x="280" y="310" as="targetPoint" />
          </mxGeometry>
        </mxCell>
        <mxCell id="mu_eCouTYCX2NFJh38U6-26" value="" style="endArrow=classic;html=1;rounded=0;entryX=0.5;entryY=0;entryDx=0;entryDy=0;exitX=0.5;exitY=1;exitDx=0;exitDy=0;" parent="1" source="mu_eCouTYCX2NFJh38U6-20" target="mu_eCouTYCX2NFJh38U6-21" edge="1">
          <mxGeometry width="50" height="50" relative="1" as="geometry">
            <mxPoint x="460" y="510" as="sourcePoint" />
            <mxPoint x="510" y="460" as="targetPoint" />
          </mxGeometry>
        </mxCell>
        <mxCell id="mu_eCouTYCX2NFJh38U6-27" value="" style="endArrow=classic;html=1;rounded=0;exitX=0.5;exitY=1;exitDx=0;exitDy=0;entryX=0.5;entryY=0;entryDx=0;entryDy=0;" parent="1" source="mu_eCouTYCX2NFJh38U6-21" target="mu_eCouTYCX2NFJh38U6-22" edge="1">
          <mxGeometry width="50" height="50" relative="1" as="geometry">
            <mxPoint x="460" y="510" as="sourcePoint" />
            <mxPoint x="510" y="460" as="targetPoint" />
          </mxGeometry>
        </mxCell>
        <mxCell id="mu_eCouTYCX2NFJh38U6-29" value="" style="endArrow=classic;html=1;rounded=0;exitX=1;exitY=0.5;exitDx=0;exitDy=0;" parent="1" source="mu_eCouTYCX2NFJh38U6-21" target="mu_eCouTYCX2NFJh38U6-30" edge="1">
          <mxGeometry width="50" height="50" relative="1" as="geometry">
            <mxPoint x="240" y="570" as="sourcePoint" />
            <mxPoint x="290" y="520" as="targetPoint" />
          </mxGeometry>
        </mxCell>
        <mxCell id="mu_eCouTYCX2NFJh38U6-30" value="Получение данных" style="rounded=1;whiteSpace=wrap;html=1;" parent="1" vertex="1">
          <mxGeometry x="650" y="580" width="110" height="45" as="geometry" />
        </mxCell>
        <mxCell id="mu_eCouTYCX2NFJh38U6-31" value="" style="endArrow=classic;html=1;rounded=0;exitX=0.5;exitY=1;exitDx=0;exitDy=0;entryX=1;entryY=0.25;entryDx=0;entryDy=0;" parent="1" source="mu_eCouTYCX2NFJh38U6-30" target="mu_eCouTYCX2NFJh38U6-22" edge="1">
          <mxGeometry width="50" height="50" relative="1" as="geometry">
            <mxPoint x="480" y="720" as="sourcePoint" />
            <mxPoint x="530" y="670" as="targetPoint" />
            <Array as="points">
              <mxPoint x="705" y="640" />
              <mxPoint x="270" y="640" />
              <mxPoint x="270" y="710" />
            </Array>
          </mxGeometry>
        </mxCell>
        <mxCell id="mu_eCouTYCX2NFJh38U6-32" value="" style="endArrow=classic;html=1;rounded=0;exitX=1;exitY=0.5;exitDx=0;exitDy=0;" parent="1" source="mu_eCouTYCX2NFJh38U6-22" target="mu_eCouTYCX2NFJh38U6-33" edge="1">
          <mxGeometry width="50" height="50" relative="1" as="geometry">
            <mxPoint x="430" y="890" as="sourcePoint" />
            <mxPoint x="480" y="840" as="targetPoint" />
          </mxGeometry>
        </mxCell>
        <mxCell id="mu_eCouTYCX2NFJh38U6-33" value="Подтверждение заказа" style="rounded=1;whiteSpace=wrap;html=1;" parent="1" vertex="1">
          <mxGeometry x="650" y="700" width="110" height="40" as="geometry" />
        </mxCell>
        <mxCell id="mu_eCouTYCX2NFJh38U6-34" value="" style="endArrow=classic;html=1;rounded=0;exitX=0.5;exitY=1;exitDx=0;exitDy=0;" parent="1" source="mu_eCouTYCX2NFJh38U6-33" target="mu_eCouTYCX2NFJh38U6-35" edge="1">
          <mxGeometry width="50" height="50" relative="1" as="geometry">
            <mxPoint x="440" y="860" as="sourcePoint" />
            <mxPoint x="490" y="810" as="targetPoint" />
            <Array as="points">
              <mxPoint x="705" y="810" />
            </Array>
          </mxGeometry>
        </mxCell>
        <mxCell id="mu_eCouTYCX2NFJh38U6-35" value="Оповещение курьера" style="rounded=1;whiteSpace=wrap;html=1;" parent="1" vertex="1">
          <mxGeometry x="400" y="790" width="110" height="40" as="geometry" />
        </mxCell>
        <mxCell id="mu_eCouTYCX2NFJh38U6-36" value="Оповещение заказчика о принятии заказа" style="rounded=1;whiteSpace=wrap;html=1;" parent="1" vertex="1">
          <mxGeometry x="136.25" y="790" width="102.5" height="40" as="geometry" />
        </mxCell>
        <mxCell id="mu_eCouTYCX2NFJh38U6-37" value="" style="endArrow=classic;html=1;rounded=0;entryX=1;entryY=0.5;entryDx=0;entryDy=0;exitX=0;exitY=0.5;exitDx=0;exitDy=0;" parent="1" source="mu_eCouTYCX2NFJh38U6-35" target="mu_eCouTYCX2NFJh38U6-36" edge="1">
          <mxGeometry width="50" height="50" relative="1" as="geometry">
            <mxPoint x="350" y="860" as="sourcePoint" />
            <mxPoint x="400" y="810" as="targetPoint" />
          </mxGeometry>
        </mxCell>
        <mxCell id="mu_eCouTYCX2NFJh38U6-38" value="" style="endArrow=classic;html=1;rounded=0;exitX=0.5;exitY=1;exitDx=0;exitDy=0;" parent="1" source="mu_eCouTYCX2NFJh38U6-36" edge="1">
          <mxGeometry width="50" height="50" relative="1" as="geometry">
            <mxPoint x="440" y="710" as="sourcePoint" />
            <mxPoint x="188.4974890208032" y="900.0014130595164" as="targetPoint" />
          </mxGeometry>
        </mxCell>
        <mxCell id="mu_eCouTYCX2NFJh38U6-40" value="" style="ellipse;html=1;shape=endState;fillColor=#000000;strokeColor=#ff0000;" parent="1" vertex="1">
          <mxGeometry x="162.5" y="900" width="52.5" height="50" as="geometry" />
        </mxCell>
        <mxCell id="mu_eCouTYCX2NFJh38U6-41" value="" style="ellipse;html=1;shape=startState;fillColor=#000000;strokeColor=#ff0000;" parent="1" vertex="1">
          <mxGeometry x="165" y="50" width="50" height="50" as="geometry" />
        </mxCell>
        <mxCell id="DZ-y3ShFYis4JmIF9Yui-1" value="" style="endArrow=classic;html=1;rounded=0;exitX=0.5;exitY=1;exitDx=0;exitDy=0;" edge="1" parent="1" source="mu_eCouTYCX2NFJh38U6-41" target="DZ-y3ShFYis4JmIF9Yui-2">
          <mxGeometry width="50" height="50" relative="1" as="geometry">
            <mxPoint x="400" y="250" as="sourcePoint" />
            <mxPoint x="450" y="200" as="targetPoint" />
          </mxGeometry>
        </mxCell>
        <mxCell id="DZ-y3ShFYis4JmIF9Yui-2" value="Выбор магазина" style="rounded=1;whiteSpace=wrap;html=1;" vertex="1" parent="1">
          <mxGeometry x="142.5" y="150" width="92.5" height="40" as="geometry" />
        </mxCell>
      </root>
    </mxGraphModel>
  </diagram>
</mxfile>
